<svg width="20" height="16" viewBox="0 0 20 16" fill="none" xmlns="http://www.w3.org/2000/svg">
<g clip-path="url(#clip0_2011_852)">
<path d="M2.99979 0C1.35419 0 0 1.35441 0 3.00027V3.99893H20V3.00027C20 1.35441 18.6458 0 17.0002 0H2.99979ZM0 6.00054V12.9997C0 14.6456 1.35419 16 2.99979 16H17.0002C18.6458 16 20 14.6456 20 12.9997V6.00054H0ZM12.9976 9.99946H15.9974C16.2631 9.99518 16.5245 10.098 16.7131 10.2866C16.9016 10.4752 17.0088 10.7324 17.0088 10.9981C17.0088 11.2639 16.9016 11.521 16.7131 11.7096C16.5245 11.8982 16.2631 12.0011 15.9974 11.9968H12.9976C12.7319 12.0011 12.4705 11.8982 12.282 11.7096C12.0934 11.521 11.9863 11.2639 11.9863 10.9981C11.9863 10.7324 12.0934 10.4752 12.282 10.2866C12.4748 10.1023 12.7319 9.99518 12.9976 9.99946Z" fill="#C5C9CD"/>
</g>
<defs>
<clipPath id="clip0_2011_852">
<rect width="20" height="16" fill="white"/>
</clipPath>
</defs>
</svg>
