<?xml version="1.0" ?>
<svg height="100%" style="fill-rule:evenodd;clip-rule:evenodd;stroke-linejoin:round;stroke-miterlimit:2;" version="1.1" viewBox="0 0 24 24" width="100%" xml:space="preserve" xmlns="http://www.w3.org/2000/svg">
    <g id="Icon">
        <path fill="currentColor" d="M13.237,21.237c0.816,-0.815 2.134,-2.133 2.829,-2.828c0.321,-0.321 0.632,-0.653 0.931,-0.995c0.269,-0.308 0.648,-0.741 1.089,-1.245c1.545,-1.765 2.276,-4.099 2.015,-6.43c-0.261,-2.331 -1.491,-4.445 -3.388,-5.824c-0.001,-0.001 -0.001,-0.001 -0.002,-0.002c-2.808,-2.042 -6.614,-2.042 -9.422,0c-0.001,0.001 -0.001,0.001 -0.002,0.002c-1.897,1.379 -3.127,3.493 -3.388,5.824c-0.261,2.331 0.47,4.665 2.015,6.43c0.441,0.504 0.82,0.937 1.089,1.245c0.299,0.342 0.61,0.674 0.931,0.995c0.695,0.695 2.013,2.013 2.829,2.828c0.328,0.329 0.773,0.513 1.237,0.513c0.464,0 0.909,-0.184 1.237,-0.513l0,0Zm-1.06,-1.06c-0.047,0.047 -0.111,0.073 -0.177,0.073c-0.066,-0 -0.13,-0.026 -0.177,-0.073c-0.815,-0.816 -2.133,-2.133 -2.828,-2.829c-0.298,-0.298 -0.586,-0.605 -0.863,-0.922c-0.269,-0.307 -0.648,-0.74 -1.089,-1.245c-1.268,-1.448 -1.867,-3.362 -1.653,-5.275c0.214,-1.912 1.223,-3.646 2.779,-4.778c0.001,-0.001 0.001,-0.001 0.002,-0.002c2.283,-1.66 5.375,-1.66 7.658,0c0.001,0.001 0.001,0.001 0.002,0.002c1.556,1.132 2.565,2.866 2.779,4.778c0.214,1.913 -0.385,3.827 -1.653,5.275c-0.441,0.505 -0.82,0.938 -1.089,1.245c-0.277,0.317 -0.565,0.624 -0.863,0.922l-2.828,2.829Z"/>
        <path fill="currentColor" d="M12,7.161c-1.794,0 -3.25,1.456 -3.25,3.25c-0,1.794 1.456,3.25 3.25,3.25c1.794,0 3.25,-1.456 3.25,-3.25c-0,-1.794 -1.456,-3.25 -3.25,-3.25Zm-0,1.5c0.966,0 1.75,0.784 1.75,1.75c-0,0.966 -0.784,1.75 -1.75,1.75c-0.966,0 -1.75,-0.784 -1.75,-1.75c-0,-0.966 0.784,-1.75 1.75,-1.75Z"/>
    </g>
</svg>