<svg xmlns="http://www.w3.org/2000/svg" width="28" height="28" fill="none"><path fill="#fff" d="M0 0h28v28H0z"/><path fill="#009EEB" d="M26.087 3.094.73 12.742a.32.32 0 0 0-.044.02c-.205.115-1.64.978.383 1.752l.02.007 6.04 1.918a.336.336 0 0 0 .278-.033l14.976-9.187a.333.333 0 0 1 .12-.045c.209-.034.809-.097.43.377-.43.537-10.66 9.55-11.795 10.55a.336.336 0 0 0-.113.224l-.496 5.807a.376.376 0 0 0 .155.305.381.381 0 0 0 .447-.033l3.587-3.153a.336.336 0 0 1 .418-.02l6.259 4.468.02.013c.152.092 1.788 1.028 2.26-1.062l4.321-20.2c.006-.063.065-.767-.447-1.182-.537-.435-1.297-.215-1.411-.192a.33.33 0 0 0-.05.018Z"/></svg>