<svg xmlns="http://www.w3.org/2000/svg" width="28" height="28" fill="none"><path fill="#07F" d="M0 13.44C0 7.104 0 3.936 1.968 1.968S7.104 0 13.44 0h1.12c6.336 0 9.504 0 11.472 1.968S28 7.104 28 13.44v1.12c0 6.336 0 9.504-1.968 11.472S20.896 28 14.56 28h-1.12c-6.336 0-9.504 0-11.472-1.968S0 20.896 0 14.56v-1.12Z"/><path fill="#fff" d="M14.898 20.172c-6.381 0-10.021-4.375-10.173-11.655h3.197c.105 5.343 2.461 7.606 4.328 8.073V8.517h3.01v4.608c1.844-.198 3.78-2.298 4.433-4.608h3.01c-.501 2.846-2.601 4.946-4.095 5.81 1.494.7 3.885 2.531 4.795 5.845H20.09c-.712-2.217-2.485-3.932-4.83-4.165v4.165h-.362Z"/></svg>